# xmcd CD database file
#
# Track frame offsets:
#	150
#	16444
#	41628
#	68220
#	87386
#	102075
#	116179
#	137357
#	151832
#	166157
#	184402
#
# Disc length: 2676 seconds
#
# Revision: 0
# Processed by: cddbd v1.4PL0 Copyright (c) Steve Scherf et al.
# Submitted via: CDex 1.50beta10
#
DISCID=8c0a720b
DTITLE=James Sherlock Quintet - Southwall
DYEAR=1900
DGENRE=Jazz
TTITLE0=Enter The Bantam
TTITLE1=Half A Chance
TTITLE2=Berkshire Blues
TTITLE3=Blue Eye
TTITLE4=Jive On Marko
TTITLE5=The Quickening
TTITLE6=Teardrop Tea
TTITLE7=Southwall
TTITLE8=Bewitched, Bothered And Bewildered
TTITLE9=Keith's Coming To Town
TTITLE10=Wrap Your Troubles In Dreams
EXTD=
EXTT0=
EXTT1=
EXTT2=
EXTT3=
EXTT4=
EXTT5=
EXTT6=
EXTT7=
EXTT8=
EXTT9=
EXTT10=
PLAYORDER=
